<mxfile host="app.diagrams.net" agent="Mozilla/5.0 (Windows NT 10.0; Win64; x64) AppleWebKit/537.36 (KHTML, like Gecko) Chrome/135.0.0.0 Safari/537.36" version="26.2.13">
  <diagram name="Page-1" id="aa4yKZgDvdDKpdzulhlQ">
    <mxGraphModel dx="739" dy="403" grid="1" gridSize="10" guides="1" tooltips="1" connect="1" arrows="1" fold="1" page="1" pageScale="1" pageWidth="827" pageHeight="1169" math="0" shadow="0">
      <root>
        <mxCell id="0" />
        <mxCell id="1" parent="0" />
        <mxCell id="FId6ezHOQFLvDzKGZxAF-4" style="edgeStyle=orthogonalEdgeStyle;rounded=0;orthogonalLoop=1;jettySize=auto;html=1;entryX=0.5;entryY=0;entryDx=0;entryDy=0;labelBackgroundColor=none;fontColor=default;strokeColor=#23445D;" edge="1" parent="1" source="FId6ezHOQFLvDzKGZxAF-1" target="FId6ezHOQFLvDzKGZxAF-2">
          <mxGeometry relative="1" as="geometry" />
        </mxCell>
        <mxCell id="FId6ezHOQFLvDzKGZxAF-1" value="start" style="ellipse;whiteSpace=wrap;html=1;labelBackgroundColor=none;fillColor=#182E3E;strokeColor=#FFFFFF;fontColor=#FFFFFF;" vertex="1" parent="1">
          <mxGeometry x="340" y="30" width="120" height="80" as="geometry" />
        </mxCell>
        <mxCell id="FId6ezHOQFLvDzKGZxAF-5" style="edgeStyle=orthogonalEdgeStyle;rounded=0;orthogonalLoop=1;jettySize=auto;html=1;entryX=0.5;entryY=0;entryDx=0;entryDy=0;labelBackgroundColor=none;fontColor=default;strokeColor=#23445D;" edge="1" parent="1" source="FId6ezHOQFLvDzKGZxAF-2" target="FId6ezHOQFLvDzKGZxAF-3">
          <mxGeometry relative="1" as="geometry" />
        </mxCell>
        <mxCell id="FId6ezHOQFLvDzKGZxAF-2" value="Power on ESP32 and initialize sensors" style="rounded=1;whiteSpace=wrap;html=1;labelBackgroundColor=none;fillColor=#182E3E;strokeColor=#FFFFFF;fontColor=#FFFFFF;" vertex="1" parent="1">
          <mxGeometry x="340" y="160" width="120" height="60" as="geometry" />
        </mxCell>
        <mxCell id="FId6ezHOQFLvDzKGZxAF-15" style="edgeStyle=orthogonalEdgeStyle;rounded=0;orthogonalLoop=1;jettySize=auto;html=1;exitX=0.5;exitY=1;exitDx=0;exitDy=0;entryX=0.5;entryY=0;entryDx=0;entryDy=0;labelBackgroundColor=none;fontColor=default;strokeColor=#23445D;" edge="1" parent="1" source="FId6ezHOQFLvDzKGZxAF-3" target="FId6ezHOQFLvDzKGZxAF-6">
          <mxGeometry relative="1" as="geometry" />
        </mxCell>
        <mxCell id="FId6ezHOQFLvDzKGZxAF-3" value="Read voltage from ZMPT101B sensor" style="rounded=1;whiteSpace=wrap;html=1;labelBackgroundColor=none;fillColor=#182E3E;strokeColor=#FFFFFF;fontColor=#FFFFFF;" vertex="1" parent="1">
          <mxGeometry x="340" y="270" width="120" height="60" as="geometry" />
        </mxCell>
        <mxCell id="FId6ezHOQFLvDzKGZxAF-16" style="edgeStyle=orthogonalEdgeStyle;rounded=0;orthogonalLoop=1;jettySize=auto;html=1;exitX=0.5;exitY=1;exitDx=0;exitDy=0;entryX=0.5;entryY=0;entryDx=0;entryDy=0;labelBackgroundColor=none;fontColor=default;strokeColor=#23445D;" edge="1" parent="1" source="FId6ezHOQFLvDzKGZxAF-6" target="FId6ezHOQFLvDzKGZxAF-7">
          <mxGeometry relative="1" as="geometry" />
        </mxCell>
        <mxCell id="FId6ezHOQFLvDzKGZxAF-6" value="Read current from SCT -013 sensor" style="rounded=1;whiteSpace=wrap;html=1;labelBackgroundColor=none;fillColor=#182E3E;strokeColor=#FFFFFF;fontColor=#FFFFFF;" vertex="1" parent="1">
          <mxGeometry x="340" y="370" width="120" height="60" as="geometry" />
        </mxCell>
        <mxCell id="FId6ezHOQFLvDzKGZxAF-17" style="edgeStyle=orthogonalEdgeStyle;rounded=0;orthogonalLoop=1;jettySize=auto;html=1;exitX=0.5;exitY=1;exitDx=0;exitDy=0;labelBackgroundColor=none;fontColor=default;strokeColor=#23445D;" edge="1" parent="1" source="FId6ezHOQFLvDzKGZxAF-7">
          <mxGeometry relative="1" as="geometry">
            <mxPoint x="400" y="580" as="targetPoint" />
          </mxGeometry>
        </mxCell>
        <mxCell id="FId6ezHOQFLvDzKGZxAF-7" value="Cover analog signal to digital value" style="rounded=1;whiteSpace=wrap;html=1;labelBackgroundColor=none;fillColor=#182E3E;strokeColor=#FFFFFF;fontColor=#FFFFFF;" vertex="1" parent="1">
          <mxGeometry x="340" y="480" width="120" height="60" as="geometry" />
        </mxCell>
        <mxCell id="FId6ezHOQFLvDzKGZxAF-18" style="edgeStyle=orthogonalEdgeStyle;rounded=0;orthogonalLoop=1;jettySize=auto;html=1;exitX=0.5;exitY=1;exitDx=0;exitDy=0;entryX=0.5;entryY=0;entryDx=0;entryDy=0;labelBackgroundColor=none;fontColor=default;strokeColor=#23445D;" edge="1" parent="1" source="FId6ezHOQFLvDzKGZxAF-8" target="FId6ezHOQFLvDzKGZxAF-9">
          <mxGeometry relative="1" as="geometry" />
        </mxCell>
        <mxCell id="FId6ezHOQFLvDzKGZxAF-8" value="Calculate instantaneous power" style="rounded=1;whiteSpace=wrap;html=1;labelBackgroundColor=none;fillColor=#182E3E;strokeColor=#FFFFFF;fontColor=#FFFFFF;" vertex="1" parent="1">
          <mxGeometry x="340" y="585" width="120" height="60" as="geometry" />
        </mxCell>
        <mxCell id="FId6ezHOQFLvDzKGZxAF-19" style="edgeStyle=orthogonalEdgeStyle;rounded=0;orthogonalLoop=1;jettySize=auto;html=1;exitX=0.5;exitY=1;exitDx=0;exitDy=0;entryX=0.5;entryY=0;entryDx=0;entryDy=0;labelBackgroundColor=none;fontColor=default;strokeColor=#23445D;" edge="1" parent="1" source="FId6ezHOQFLvDzKGZxAF-9" target="FId6ezHOQFLvDzKGZxAF-10">
          <mxGeometry relative="1" as="geometry" />
        </mxCell>
        <mxCell id="FId6ezHOQFLvDzKGZxAF-9" value="Calculate in Kilowatt hours" style="rounded=1;whiteSpace=wrap;html=1;labelBackgroundColor=none;fillColor=#182E3E;strokeColor=#FFFFFF;fontColor=#FFFFFF;" vertex="1" parent="1">
          <mxGeometry x="340" y="700" width="120" height="60" as="geometry" />
        </mxCell>
        <mxCell id="FId6ezHOQFLvDzKGZxAF-10" value="Display data on LCD" style="rounded=1;whiteSpace=wrap;html=1;labelBackgroundColor=none;fillColor=#182E3E;strokeColor=#FFFFFF;fontColor=#FFFFFF;" vertex="1" parent="1">
          <mxGeometry x="260" y="830" width="120" height="60" as="geometry" />
        </mxCell>
        <mxCell id="FId6ezHOQFLvDzKGZxAF-21" style="edgeStyle=orthogonalEdgeStyle;rounded=0;orthogonalLoop=1;jettySize=auto;html=1;entryX=0.5;entryY=0;entryDx=0;entryDy=0;labelBackgroundColor=none;fontColor=default;strokeColor=#23445D;" edge="1" parent="1" source="FId6ezHOQFLvDzKGZxAF-11" target="FId6ezHOQFLvDzKGZxAF-12">
          <mxGeometry relative="1" as="geometry" />
        </mxCell>
        <mxCell id="FId6ezHOQFLvDzKGZxAF-11" value="Send data to Blynk app via cloud server via WiFi" style="rounded=1;whiteSpace=wrap;html=1;labelBackgroundColor=none;fillColor=#182E3E;strokeColor=#FFFFFF;fontColor=#FFFFFF;" vertex="1" parent="1">
          <mxGeometry x="430" y="830" width="120" height="60" as="geometry" />
        </mxCell>
        <mxCell id="FId6ezHOQFLvDzKGZxAF-22" style="edgeStyle=orthogonalEdgeStyle;rounded=0;orthogonalLoop=1;jettySize=auto;html=1;exitX=0.5;exitY=1;exitDx=0;exitDy=0;entryX=0.5;entryY=0;entryDx=0;entryDy=0;labelBackgroundColor=none;fontColor=default;strokeColor=#23445D;" edge="1" parent="1" source="FId6ezHOQFLvDzKGZxAF-12" target="FId6ezHOQFLvDzKGZxAF-13">
          <mxGeometry relative="1" as="geometry" />
        </mxCell>
        <mxCell id="FId6ezHOQFLvDzKGZxAF-12" value="Update real time dashboard in Blynk App" style="rounded=1;whiteSpace=wrap;html=1;labelBackgroundColor=none;fillColor=#182E3E;strokeColor=#FFFFFF;fontColor=#FFFFFF;" vertex="1" parent="1">
          <mxGeometry x="430" y="940" width="120" height="60" as="geometry" />
        </mxCell>
        <mxCell id="FId6ezHOQFLvDzKGZxAF-23" style="edgeStyle=orthogonalEdgeStyle;rounded=0;orthogonalLoop=1;jettySize=auto;html=1;exitX=0.5;exitY=1;exitDx=0;exitDy=0;entryX=0.5;entryY=0;entryDx=0;entryDy=0;labelBackgroundColor=none;fontColor=default;strokeColor=#23445D;" edge="1" parent="1" source="FId6ezHOQFLvDzKGZxAF-13" target="FId6ezHOQFLvDzKGZxAF-14">
          <mxGeometry relative="1" as="geometry" />
        </mxCell>
        <mxCell id="FId6ezHOQFLvDzKGZxAF-25" style="edgeStyle=orthogonalEdgeStyle;rounded=0;orthogonalLoop=1;jettySize=auto;html=1;entryX=1;entryY=0.5;entryDx=0;entryDy=0;labelBackgroundColor=none;fontColor=default;strokeColor=#23445D;" edge="1" parent="1" source="FId6ezHOQFLvDzKGZxAF-13" target="FId6ezHOQFLvDzKGZxAF-3">
          <mxGeometry relative="1" as="geometry">
            <Array as="points">
              <mxPoint x="590" y="1100" />
              <mxPoint x="590" y="300" />
            </Array>
          </mxGeometry>
        </mxCell>
        <mxCell id="FId6ezHOQFLvDzKGZxAF-13" value="More Data ?" style="rhombus;whiteSpace=wrap;html=1;labelBackgroundColor=none;fillColor=#182E3E;strokeColor=#FFFFFF;fontColor=#FFFFFF;" vertex="1" parent="1">
          <mxGeometry x="450" y="1060" width="80" height="80" as="geometry" />
        </mxCell>
        <mxCell id="FId6ezHOQFLvDzKGZxAF-14" value="Stop or reset System" style="ellipse;whiteSpace=wrap;html=1;labelBackgroundColor=none;fillColor=#182E3E;strokeColor=#FFFFFF;fontColor=#FFFFFF;" vertex="1" parent="1">
          <mxGeometry x="430" y="1180" width="120" height="80" as="geometry" />
        </mxCell>
        <mxCell id="FId6ezHOQFLvDzKGZxAF-20" style="edgeStyle=orthogonalEdgeStyle;rounded=0;orthogonalLoop=1;jettySize=auto;html=1;exitX=0.5;exitY=1;exitDx=0;exitDy=0;entryX=0.567;entryY=0.033;entryDx=0;entryDy=0;entryPerimeter=0;labelBackgroundColor=none;fontColor=default;strokeColor=#23445D;" edge="1" parent="1" source="FId6ezHOQFLvDzKGZxAF-9" target="FId6ezHOQFLvDzKGZxAF-11">
          <mxGeometry relative="1" as="geometry" />
        </mxCell>
        <mxCell id="FId6ezHOQFLvDzKGZxAF-24" value="&lt;font style=&quot;color: light-dark(rgb(0, 0, 0), rgb(234, 255, 233));&quot;&gt;No&lt;/font&gt;" style="text;html=1;align=center;verticalAlign=middle;resizable=0;points=[];autosize=1;strokeColor=none;fillColor=none;labelBackgroundColor=none;fontColor=#FFFFFF;" vertex="1" parent="1">
          <mxGeometry x="490" y="1018" width="40" height="30" as="geometry" />
        </mxCell>
        <mxCell id="FId6ezHOQFLvDzKGZxAF-26" value="&lt;font style=&quot;color: light-dark(rgb(0, 0, 0), rgb(255, 255, 255));&quot;&gt;Yes&lt;/font&gt;" style="text;html=1;align=center;verticalAlign=middle;resizable=0;points=[];autosize=1;strokeColor=none;fillColor=none;labelBackgroundColor=none;fontColor=#FFFFFF;" vertex="1" parent="1">
          <mxGeometry x="540" y="1068" width="40" height="30" as="geometry" />
        </mxCell>
      </root>
    </mxGraphModel>
  </diagram>
</mxfile>
